<svg width="62" height="13" viewBox="0 0 62 13" fill="none" xmlns="http://www.w3.org/2000/svg">
<path d="M8.38281 12H10.2344L6.16406 0.726562H4.27344L0.203125 12H2.02344L3.05469 8.95312H7.35156L8.38281 12ZM5.17969 2.60156H5.22656L6.90625 7.54688H3.5L5.17969 2.60156ZM15.6484 12.1406C17.7344 12.1406 19.0781 10.5 19.0781 7.89062C19.0781 5.28906 17.7266 3.64844 15.6562 3.64844C14.4922 3.64844 13.5547 4.22656 13.0625 5.17969H13.0234V0.726562H11.3359V12H12.9766V10.6016H13.0078C13.5156 11.5547 14.4453 12.1406 15.6484 12.1406ZM15.1953 5.07031C16.5234 5.07031 17.3438 6.16406 17.3438 7.89062C17.3438 9.63281 16.5234 10.7109 15.1953 10.7109C13.9141 10.7109 13.0156 9.60156 13.0156 7.89062C13.0156 6.19531 13.9141 5.07031 15.1953 5.07031ZM23.9297 12.1562C26.2812 12.1562 27.8281 10.5391 27.8281 7.89062C27.8281 5.25 26.2734 3.63281 23.9297 3.63281C21.5859 3.63281 20.0312 5.25 20.0312 7.89062C20.0312 10.5391 21.5781 12.1562 23.9297 12.1562ZM23.9297 10.7656C22.6094 10.7656 21.75 9.71875 21.75 7.89062C21.75 6.07031 22.6094 5.02344 23.9297 5.02344C25.25 5.02344 26.1094 6.07031 26.1094 7.89062C26.1094 9.71875 25.2578 10.7656 23.9297 10.7656ZM36.1797 3.78125H34.4922V8.57031C34.4922 9.85156 33.7578 10.6953 32.5391 10.6953C31.375 10.6953 30.7812 10.0234 30.7812 8.77344V3.78125H29.0938V9.10156C29.0938 10.9844 30.1875 12.1484 31.9766 12.1484C33.2344 12.1484 34.0703 11.5938 34.5234 10.6094H34.5625V12H36.1797V3.78125ZM38.3438 1.83594V3.78125H37.1484V5.11719H38.3438V9.83594C38.3438 11.4219 38.9922 12.0547 40.6562 12.0547C41.0312 12.0547 41.4062 12.0234 41.5938 11.9766V10.6406C41.4844 10.6641 41.2109 10.6797 41.0391 10.6797C40.3516 10.6797 40.0391 10.3594 40.0391 9.64844V5.11719H41.6016V3.78125H40.0391V1.83594H38.3438ZM53.2891 3.78125H51.6016V8.57031C51.6016 9.85156 50.8672 10.6953 49.6484 10.6953C48.4844 10.6953 47.8906 10.0234 47.8906 8.77344V3.78125H46.2031V9.10156C46.2031 10.9844 47.2969 12.1484 49.0859 12.1484C50.3438 12.1484 51.1797 11.5938 51.6328 10.6094H51.6719V12H53.2891V3.78125ZM54.8125 6.10938C54.8125 7.30469 55.5859 8.05469 57.1484 8.41406L58.4844 8.72656C59.3828 8.92969 59.6875 9.24219 59.6875 9.77344C59.6875 10.4453 59.0625 10.8672 58.0469 10.8672C57.0156 10.8672 56.4297 10.4453 56.2734 9.58594H54.6016C54.7578 11.1484 55.9922 12.1562 58.0469 12.1562C59.9844 12.1562 61.3828 11.125 61.3828 9.625C61.3828 8.4375 60.7422 7.78125 59.0625 7.39062L57.7266 7.08594C56.8359 6.88281 56.4609 6.53125 56.4609 6.01562C56.4609 5.35938 57.0703 4.91406 57.9844 4.91406C58.9297 4.91406 59.5156 5.41406 59.6094 6.21094H61.1953C61.1406 4.69531 59.8984 3.63281 57.9844 3.63281C56.0938 3.63281 54.8125 4.64062 54.8125 6.10938Z" fill="black" fill-opacity="0.9"/>
</svg>
