<svg width="86" height="15" viewBox="0 0 86 15" fill="none" xmlns="http://www.w3.org/2000/svg">
<path d="M6.14062 12L10.1641 0.726562H8.29688L5.21875 10.0312H5.17188L2.10156 0.726562H0.203125L4.22656 12H6.14062ZM11.9062 2.45312C12.4453 2.45312 12.875 2.01562 12.875 1.48438C12.875 0.945312 12.4453 0.515625 11.9062 0.515625C11.3672 0.515625 10.9297 0.945312 10.9297 1.48438C10.9297 2.01562 11.3672 2.45312 11.9062 2.45312ZM11.0625 12H12.75V3.78125H11.0625V12ZM19.9219 9.58594C19.6953 10.3047 18.9844 10.7891 18.0234 10.7891C16.6719 10.7891 15.8125 9.84375 15.8125 8.41406V8.3125H21.6172V7.73438C21.6172 5.24219 20.1953 3.63281 17.9141 3.63281C15.5938 3.63281 14.1094 5.35156 14.1094 7.92969C14.1094 10.5234 15.5703 12.1562 17.9844 12.1562C19.8672 12.1562 21.2891 11.0859 21.5234 9.58594H19.9219ZM17.9141 4.99219C19.0938 4.99219 19.8906 5.875 19.9297 7.13281H15.8203C15.9062 5.89062 16.7344 4.99219 17.9141 4.99219ZM33.7578 3.78125H32.0859L30.5859 10.25H30.5469L28.8281 3.78125H27.2031L25.4922 10.25H25.4609L23.9609 3.78125H22.2734L24.5312 12H26.2734L27.9844 5.84375H28.0234L29.75 12H31.5078L33.7578 3.78125ZM38.2422 0.726562V12H39.9922V8.14844H42.4141C44.625 8.14844 46.1797 6.63281 46.1797 4.42969C46.1797 2.23438 44.6562 0.726562 42.4688 0.726562H38.2422ZM39.9922 2.20312H42.0078C43.5234 2.20312 44.3906 3.01562 44.3906 4.4375C44.3906 5.85938 43.5234 6.67969 42 6.67969H39.9922V2.20312ZM47.5078 12H49.1953V7.07812C49.1953 5.91406 49.8672 5.1875 50.9531 5.1875C51.2812 5.1875 51.5781 5.22656 51.7109 5.28125V3.71094C51.5859 3.6875 51.375 3.64844 51.1328 3.64844C50.1641 3.64844 49.4297 4.21875 49.1562 5.17969H49.1172V3.78125H47.5078V12ZM55.9297 12.1562C58.2812 12.1562 59.8281 10.5391 59.8281 7.89062C59.8281 5.25 58.2734 3.63281 55.9297 3.63281C53.5859 3.63281 52.0312 5.25 52.0312 7.89062C52.0312 10.5391 53.5781 12.1562 55.9297 12.1562ZM55.9297 10.7656C54.6094 10.7656 53.75 9.71875 53.75 7.89062C53.75 6.07031 54.6094 5.02344 55.9297 5.02344C57.25 5.02344 58.1094 6.07031 58.1094 7.89062C58.1094 9.71875 57.2578 10.7656 55.9297 10.7656ZM62.0234 2.45312C62.5703 2.45312 62.9922 2.01562 62.9922 1.48438C62.9922 0.945312 62.5703 0.515625 62.0234 0.515625C61.4844 0.515625 61.0469 0.945312 61.0469 1.48438C61.0469 2.01562 61.4844 2.45312 62.0234 2.45312ZM62.875 3.78125H61.1875V12.3828C61.1875 13.2109 60.875 13.5234 60.0391 13.5234C60.0078 13.5234 59.8281 13.5156 59.7969 13.5156V14.8438C59.8438 14.8594 60.1094 14.8594 60.1875 14.8594C62.0078 14.8594 62.875 14.0625 62.875 12.3906V3.78125ZM70.0469 9.58594C69.8203 10.3047 69.1094 10.7891 68.1484 10.7891C66.7969 10.7891 65.9375 9.84375 65.9375 8.41406V8.3125H71.7422V7.73438C71.7422 5.24219 70.3203 3.63281 68.0391 3.63281C65.7188 3.63281 64.2344 5.35156 64.2344 7.92969C64.2344 10.5234 65.6953 12.1562 68.1094 12.1562C69.9922 12.1562 71.4141 11.0859 71.6484 9.58594H70.0469ZM68.0391 4.99219C69.2188 4.99219 70.0156 5.875 70.0547 7.13281H65.9453C66.0312 5.89062 66.8594 4.99219 68.0391 4.99219ZM80.1094 6.60938C79.9609 4.99219 78.6719 3.63281 76.5547 3.63281C74.2188 3.63281 72.6875 5.28125 72.6875 7.89062C72.6875 10.5469 74.2188 12.1562 76.5703 12.1562C78.5469 12.1562 79.9453 10.9688 80.125 9.21875H78.5C78.3047 10.1719 77.625 10.7422 76.5859 10.7422C75.2734 10.7422 74.4062 9.69531 74.4062 7.89062C74.4062 6.125 75.2656 5.03906 76.5703 5.03906C77.6719 5.03906 78.3281 5.73438 78.5 6.60938H80.1094ZM81.8125 1.83594V3.78125H80.6172V5.11719H81.8125V9.83594C81.8125 11.4219 82.4609 12.0547 84.125 12.0547C84.5 12.0547 84.875 12.0234 85.0625 11.9766V10.6406C84.9531 10.6641 84.6797 10.6797 84.5078 10.6797C83.8203 10.6797 83.5078 10.3594 83.5078 9.64844V5.11719H85.0703V3.78125H83.5078V1.83594H81.8125Z" fill="white" fill-opacity="0.9"/>
</svg>
